# File created by Blade
# Date/Time:  Wed Apr 08 17:04:14 2015
#---------------------------------------------------------
:version 1.10
:name HOM
:units
  mass 1.0
  length 1.000000
  angle deg
:documentation
     Acclaim Skeleton File
:root
   axis xyz
   order TX TY TZ RX RY RZ
   position 0.000000 0.000000 0.000000
   orientation 0 0 0
:bonedata
   begin
      id 1
      name Spine_dum
      direction 0.000000 1.000000 0.000000
      length 5.893853
      axis 0.0 0.0 0.0 xyz
   end
   begin
      id 2
      name LeftUpLeg_dum
      direction 1.000000 0.000000 0.000000
      length 3.697939
      axis 0.0 0.0 0.0 xyz
   end
   begin
      id 3
      name RightUpLeg_dum
      direction -1.000000 0.000000 0.000000
      length 3.697939
      axis 0.0 0.0 0.0 xyz
   end
   begin
      id 4
      name Spine
      direction 0.000000 1.000000 0.000000
      length 0.000000
      axis 0.0 0.0 0.0 xyz
      dof rx ry rz
   end
   begin
      id 5
      name Spine_dum1
      direction 0.000000 1.000000 0.000000
      length 16.447146
      axis 0.0 0.0 0.0 xyz
   end
   begin
      id 6
      name Spine_dum2
      direction 0.000000 1.000000 0.000000
      length 10.900383
      axis 0.0 0.0 0.0 xyz
   end
   begin
      id 7
      name Spine_dum3
      direction 0.000000 1.000000 0.000000
      length 10.900383
      axis 0.0 0.0 0.0 xyz
   end
   begin
      id 8
      name Head
      direction 0.000000 1.000000 0.000000
      length 4.527550
      axis 0.0 0.0 0.0 xyz
      dof rx ry rz
   end
   begin
      id 9
      name LeftShoulder
      direction 1.000000 0.000000 0.000000
      length 8.219464
      axis 0.0 0.0 -90.0 xyz
      dof rx ry rz
   end
   begin
      id 10
      name LeftArm
      direction 1.000000 0.000000 0.000000
      length 11.094937
      axis 0.0 0.0 -90.0 xyz
      dof rx ry rz
   end
   begin
      id 11
      name LeftForeArm
      direction 1.000000 0.000000 0.000000
      length 9.103875
      axis 0.0 0.0 -90.0 xyz
      dof ry rz rx
   end
   begin
      id 12
      name LeftHand
      direction 0.000000 0.000000 0.000000
      length 0.000000
      axis 0.0 0.0 -90.0 xyz
      dof rx ry rz
   end
   begin
      id 13
      name LeftHand_dum1
      direction 0.000000 0.000000 0.000000
      length 0.000000
      axis 0.0 0.0 -90.0 xyz
   end
   begin
      id 14
      name LeftHand_dum2
      direction 1.000000 0.000000 0.000000
      length 3.937000
      axis 0.0 0.0 -90.0 xyz
   end
   begin
      id 15
      name LeftHandThumb1
      direction 0.000000 0.000000 1.000000
      length 3.937000
      axis 0.0 0.0 -90.0 xyz
      dof rx rz ry
   end
   begin
      id 16
      name RightShoulder
      direction -1.000000 0.000000 0.000000
      length 8.219464
      axis 0.0 0.0 90.0 xyz
      dof rx ry rz
   end
   begin
      id 17
      name RightArm
      direction -1.000000 0.000000 0.000000
      length 11.094937
      axis 0.0 0.0 90.0 xyz
      dof rx ry rz
   end
   begin
      id 18
      name RightForeArm
      direction -1.000000 0.000000 0.000000
      length 9.103875
      axis 0.0 0.0 90.0 xyz
      dof ry rz rx
   end
   begin
      id 19
      name RightHand
      direction 0.000000 0.000000 0.000000
      length 0.000000
      axis 0.0 0.0 90.0 xyz
      dof rx ry rz
   end
   begin
      id 20
      name RightHand_dum1
      direction 0.000000 0.000000 0.000000
      length 0.000000
      axis 0.0 0.0 90.0 xyz
   end
   begin
      id 21
      name RightHand_dum2
      direction -1.000000 0.000000 0.000000
      length 3.937000
      axis 0.0 0.0 90.0 xyz
   end
   begin
      id 22
      name RightHandThumb1
      direction 0.000000 0.000000 1.000000
      length 3.937000
      axis 0.0 0.0 90.0 xyz
      dof rx rz ry
   end
   begin
      id 23
      name LeftUpLeg
      direction 0.000000 -1.000000 0.000000
      length 16.181467
      axis 0.0 0.0 0.0 xyz
      dof rx ry rz
   end
   begin
      id 24
      name LeftLeg
      direction 0.000000 -1.000000 0.000000
      length 16.501392
      axis 0.0 0.0 0.0 xyz
      dof rx ry rz
   end
   begin
      id 25
      name LeftFoot
      direction 0.000000 -0.258819 0.965926
      length 6.408245
      axis 15.0 0.0 0.0 xyz
      dof rx ry rz
   end
   begin
      id 26
      name LeftToeBase
      direction 0.000000 0.000000 1.000000
      length 2.952750
      axis 0.0 0.0 0.0 xyz
      dof rx ry rz
   end
   begin
      id 27
      name RightUpLeg
      direction 0.000000 -1.000000 0.000000
      length 16.181467
      axis 0.0 0.0 0.0 xyz
      dof rx ry rz
   end
   begin
      id 28
      name RightLeg
      direction 0.000000 -1.000000 0.000000
      length 16.501392
      axis 0.0 0.0 0.0 xyz
      dof rx ry rz
   end
   begin
      id 29
      name RightFoot
      direction 0.000000 -0.258819 0.965926
      length 6.408245
      axis 15.0 0.0 0.0 xyz
      dof rx ry rz
   end
   begin
      id 30
      name RightToeBase
      direction 0.000000 0.000000 1.000000
      length 2.952750
      axis 0.0 0.0 0.0 xyz
      dof rx ry rz
   end
:hierarchy
   begin
      root Spine_dum LeftUpLeg_dum RightUpLeg_dum
      Spine_dum Spine
      LeftUpLeg_dum LeftUpLeg
      RightUpLeg_dum RightUpLeg
      Spine Spine_dum1 Spine_dum2 Spine_dum3
      Spine_dum1 Head
      Spine_dum2 LeftShoulder
      Spine_dum3 RightShoulder
      LeftShoulder LeftArm
      LeftArm LeftForeArm
      LeftForeArm LeftHand
      LeftHand LeftHand_dum1 LeftHand_dum2
      LeftHand_dum1 LeftHandThumb1
      RightShoulder RightArm
      RightArm RightForeArm
      RightForeArm RightHand
      RightHand RightHand_dum1 RightHand_dum2
      RightHand_dum1 RightHandThumb1
      LeftUpLeg LeftLeg
      LeftLeg LeftFoot
      LeftFoot LeftToeBase
      RightUpLeg RightLeg
      RightLeg RightFoot
      RightFoot RightToeBase
   end

# File created by Blade
# Date/Time:  Wed Apr 08 17:04:22 2015
# Frame Rate: 120.000 fps
#------------------------------------------------------
:FULLY-SPECIFIED
:DEGREES
564
root 3.617826 35.946611 3.925876 -147.465797 -77.300478 174.741409
Spine -28.644516 -15.812369 -0.870672
Head 53.049339 -18.257059 -16.829808
LeftShoulder 15.029624 -6.163473 32.350761
LeftArm 103.191530 40.899554 -43.604920
LeftForeArm 14.285431 0.000000 94.357683
LeftHand -16.193993 -0.000000 -11.133112
LeftHandThumb1 -26.253704 0.000000 33.147579
RightShoulder -6.054265 -63.852209 -23.051826
RightArm 47.946452 21.604942 65.376881
RightForeArm 71.645002 -0.000000 91.753070
RightHand 12.682349 0.000000 -0.592314
RightHandThumb1 -24.326973 -0.000000 -32.862282
LeftUpLeg -29.856276 12.724711 -4.370188
LeftLeg 18.372058 -0.000000 -0.000000
LeftFoot -17.889138 11.813686 -15.761709
LeftToeBase 8.949876 -0.000000 -0.000000
RightUpLeg -34.094226 -3.064440 -10.526153
RightLeg 16.759858 -0.000000 -0.000000
RightFoot -10.415581 3.756062 19.582703
RightToeBase 13.009703 -0.000000 -0.000000
565
root 3.619151 35.947212 3.924185 -147.580419 -77.258927 174.853356
Spine -28.629410 -15.845006 -0.890625
Head 53.125902 -18.303092 -16.871428
LeftShoulder 15.038444 -6.120349 32.314028
LeftArm 103.185927 40.896030 -43.608617
LeftForeArm 14.317898 -0.000000 94.367752
LeftHand -16.142101 -0.000000 -11.128612
LeftHandThumb1 -26.253704 0.000000 33.147579
RightShoulder -5.956653 -63.764867 -23.160942
RightArm 47.891334 21.925606 65.668130
RightForeArm 71.317976 0.000000 90.598363
RightHand 12.877289 -0.000000 -2.138824
RightHandThumb1 -24.326973 -0.000000 -32.862282
LeftUpLeg -29.853569 12.778065 -4.375314
LeftLeg 18.374608 -0.000000 -0.000000
LeftFoot -17.915388 11.820488 -15.787854
LeftToeBase 8.998405 -0.000000 -0.000000
RightUpLeg -34.093215 -3.060475 -10.502867
RightLeg 16.735162 -0.000000 -0.000000
RightFoot -10.373078 3.792952 19.572304
RightToeBase 12.986509 -0.000000 -0.000000
566
root 3.620162 35.947236 3.922091 -147.692703 -77.215159 174.964691
Spine -28.616531 -15.874285 -0.913581
Head 53.197581 -18.336822 -16.890544
LeftShoulder 15.044586 -6.071613 32.284444
LeftArm 103.190065 40.891424 -43.616763
LeftForeArm 14.256856 0.000000 94.374513
LeftHand -16.016725 -0.000000 -11.261053
LeftHandThumb1 -26.253704 0.000000 33.147579
RightShoulder -5.870801 -63.688625 -23.272458
RightArm 47.883017 22.266933 65.995865
RightForeArm 70.608928 0.000000 89.222347
RightHand 13.154723 -0.000000 -2.854718
RightHandThumb1 -24.326973 -0.000000 -32.862282
LeftUpLeg -29.840905 12.790614 -4.351669
LeftLeg 18.368171 -0.000000 -0.000000
LeftFoot -17.921340 11.851398 -15.751331
LeftToeBase 9.012253 -0.000000 -0.000000
RightUpLeg -34.096611 -3.063735 -10.477919
RightLeg 16.715276 -0.000000 -0.000000
RightFoot -10.338003 3.846351 19.561542
RightToeBase 13.008553 -0.000000 -0.000000
567
root 3.621441 35.947725 3.920465 -147.802712 -77.172908 175.065761
Spine -28.591167 -15.901387 -0.945684
Head 53.277292 -18.382749 -16.920392
LeftShoulder 15.054091 -6.060135 32.249824
LeftArm 103.174623 40.899065 -43.610827
LeftForeArm 14.183692 -0.000000 94.396610
LeftHand -15.987892 0.000000 -11.274503
LeftHandThumb1 -26.253704 0.000000 33.147579
RightShoulder -5.713579 -63.555935 -23.460043
RightArm 47.816298 22.621319 66.360781
RightForeArm 69.147297 0.000000 87.699003
RightHand 13.105791 -0.000000 -3.195703
RightHandThumb1 -24.326973 -0.000000 -32.862282
LeftUpLeg -29.831447 12.831801 -4.351140
LeftLeg 18.372616 -0.000000 -0.000000
LeftFoot -17.939429 11.856228 -15.806251
LeftToeBase 8.992351 -0.000000 -0.000000
RightUpLeg -34.082922 -3.042114 -10.465611
RightLeg 16.677672 -0.000000 -0.000000
RightFoot -10.310052 3.872112 19.567197
RightToeBase 13.025295 -0.000000 -0.000000
568
root 3.623111 35.948252 3.917746 -147.887133 -77.137273 175.148718
Spine -28.568517 -15.914096 -0.994999
Head 53.364275 -18.463696 -16.951279
LeftShoulder 15.059182 -6.053138 32.228082
LeftArm 103.204629 40.919296 -43.560472
LeftForeArm 14.144320 0.000000 94.452664
LeftHand -16.091461 -0.000000 -11.143463
LeftHandThumb1 -26.253704 0.000000 33.147579
RightShoulder -5.716023 -63.515766 -23.492614
RightArm 47.841110 22.941839 66.653421
RightForeArm 68.314267 -0.000000 86.167723
RightHand 13.348499 0.000000 -3.509992
RightHandThumb1 -24.326973 -0.000000 -32.862282
LeftUpLeg -29.834409 12.869673 -4.349504
LeftLeg 18.382032 -0.000000 -0.000000
LeftFoot -17.948262 11.863365 -15.814398
LeftToeBase 9.008510 -0.000000 -0.000000
RightUpLeg -34.074536 -3.037438 -10.447244
RightLeg 16.639107 -0.000000 -0.000000
RightFoot -10.275780 3.900503 19.549337
RightToeBase 13.034038 -0.000000 -0.000000
569
root 3.624737 35.948823 3.915555 -147.951228 -77.110471 175.209352
Spine -28.539267 -15.945966 -1.049466
Head 53.445811 -18.545850 -16.947270
LeftShoulder 15.051760 -6.072335 32.222168
LeftArm 103.202622 40.956457 -43.541855
LeftForeArm 14.109611 -0.000000 94.484605
LeftHand -16.114761 -0.000000 -11.045335
LeftHandThumb1 -26.253704 0.000000 33.147579
RightShoulder -5.706976 -63.462518 -23.491870
RightArm 47.816571 23.288297 66.833973
RightForeArm 67.560689 -0.000000 84.569526
RightHand 13.324859 -0.000000 -3.541945
RightHandThumb1 -24.326973 -0.000000 -32.862282
LeftUpLeg -29.830733 12.884050 -4.334631
LeftLeg 18.387497 -0.000000 -0.000000
LeftFoot -17.938139 11.873504 -15.772883
LeftToeBase 8.986061 -0.000000 -0.000000
RightUpLeg -34.062549 -3.027660 -10.437251
RightLeg 16.604699 -0.000000 -0.000000
RightFoot -10.257751 3.923703 19.556541
RightToeBase 13.054110 -0.000000 -0.000000
570
root 3.626674 35.949047 3.913108 -148.027166 -77.075986 175.282405
Spine -28.515403 -15.987140 -1.095934
Head 53.500106 -18.591533 -16.932292
LeftShoulder 15.033088 -6.042183 32.236125
LeftArm 103.185326 40.976207 -43.546687
LeftForeArm 14.135796 -0.000000 94.544771
LeftHand -16.138804 0.000000 -11.001380
LeftHandThumb1 -26.253704 0.000000 33.147579
RightShoulder -5.697489 -63.408942 -23.490608
RightArm 47.779792 23.553997 66.880366
RightForeArm 66.911215 -0.000000 82.927957
RightHand 13.322847 -0.000000 -4.032259
RightHandThumb1 -24.326973 -0.000000 -32.862282
LeftUpLeg -29.829441 12.909394 -4.327489
LeftLeg 18.395299 -0.000000 -0.000000
LeftFoot -17.944838 11.888301 -15.765314
LeftToeBase 9.002117 -0.000000 -0.000000
RightUpLeg -34.054984 -3.000891 -10.429536
RightLeg 16.571294 -0.000000 -0.000000
RightFoot -10.241468 3.925365 19.547315
RightToeBase 13.083821 -0.000000 -0.000000
571
root 3.627488 35.949066 3.909646 -148.110169 -77.053889 175.354828
Spine -28.474095 -16.016375 -1.157844
Head 53.557724 -18.672277 -16.914808
LeftShoulder 15.038468 -6.019016 32.249165
LeftArm 103.183877 40.973115 -43.519616
LeftForeArm 14.038315 0.000000 94.609587
LeftHand -16.188160 -0.000000 -10.889761
LeftHandThumb1 -26.253704 0.000000 33.147579
RightShoulder -5.555652 -63.295754 -23.614745
RightArm 47.558968 23.702730 66.863575
RightForeArm 66.684506 0.000000 81.398408
RightHand 13.399212 -0.000000 -5.334817
RightHandThumb1 -24.326973 -0.000000 -32.862282
LeftUpLeg -29.819832 12.937770 -4.317660
LeftLeg 18.401245 -0.000000 -0.000000
LeftFoot -17.943995 11.889679 -15.771488
LeftToeBase 8.975681 -0.000000 -0.000000
RightUpLeg -34.026938 -2.945895 -10.434580
RightLeg 16.528495 -0.000000 -0.000000
RightFoot -10.236788 3.897573 19.542626
RightToeBase 13.075522 -0.000000 -0.000000
572
root 3.628545 35.949595 3.907894 -148.178952 -77.029180 175.416287
Spine -28.437391 -16.038640 -1.224009
Head 53.637769 -18.761300 -16.911621
LeftShoulder 15.026789 -5.983640 32.255279
LeftArm 103.229396 40.983508 -43.468340
LeftForeArm 14.071010 -0.000000 94.639586
LeftHand -16.279032 -0.000000 -10.729796
LeftHandThumb1 -26.253704 0.000000 33.147579
RightShoulder -5.550536 -63.289780 -23.589664
RightArm 47.429575 23.817163 66.717835
RightForeArm 67.215673 -0.000000 79.948049
RightHand 13.515157 -0.000000 -7.332429
RightHandThumb1 -24.326973 -0.000000 -32.862282
LeftUpLeg -29.813779 12.967519 -4.320135
LeftLeg 18.401810 -0.000000 -0.000000
LeftFoot -17.949408 11.875663 -15.815771
LeftToeBase 8.971719 -0.000000 -0.000000
RightUpLeg -34.008484 -2.906441 -10.435243
RightLeg 16.492284 -0.000000 -0.000000
RightFoot -10.225317 3.876445 19.528332
RightToeBase 13.053308 -0.000000 -0.000000
573
root 3.629516 35.949636 3.905452 -148.242280 -77.015872 175.467629
Spine -28.379985 -16.053195 -1.288276
Head 53.646667 -18.854146 -16.930981
LeftShoulder 15.012480 -5.952509 32.267780
LeftArm 103.311715 40.987976 -43.383804
LeftForeArm 14.132735 -0.000000 94.677639
LeftHand -16.447630 -0.000000 -10.464918
LeftHandThumb1 -26.253704 0.000000 33.147579
RightShoulder -5.556327 -63.287426 -23.585533
RightArm 47.228885 23.860197 66.543612
RightForeArm 67.787940 0.000000 78.503138
RightHand 13.766595 -0.000000 -8.903961
RightHandThumb1 -24.326973 -0.000000 -32.862282
LeftUpLeg -29.801253 12.992952 -4.313469
LeftLeg 18.402929 -0.000000 -0.000000
LeftFoot -17.958647 11.898334 -15.826250
LeftToeBase 8.971563 -0.000000 -0.000000
RightUpLeg -33.990698 -2.867644 -10.437815
RightLeg 16.474258 -0.000000 -0.000000
RightFoot -10.230063 3.859375 19.533055
RightToeBase 13.059587 -0.000000 -0.000000
574
root 3.630626 35.949954 3.903257 -148.331063 -77.003476 175.551847
Spine -28.334960 -16.077874 -1.329507
Head 53.650273 -18.908147 -16.949511
LeftShoulder 14.991616 -5.943920 32.271642
LeftArm 103.342986 41.006758 -43.334276
LeftForeArm 14.172047 0.000000 94.707089
LeftHand -16.514266 0.000000 -10.267242
LeftHandThumb1 -26.253704 0.000000 33.147579
RightShoulder -5.556036 -63.275005 -23.558522
RightArm 47.029717 23.949754 66.380620
RightForeArm 68.523656 -0.000000 77.127778
RightHand 13.986413 -0.000000 -10.209971
RightHandThumb1 -24.326973 -0.000000 -32.862282
LeftUpLeg -29.787239 13.004981 -4.287633
LeftLeg 18.391966 -0.000000 -0.000000
LeftFoot -17.949561 11.903935 -15.765615
LeftToeBase 9.002360 -0.000000 -0.000000
RightUpLeg -33.981499 -2.817589 -10.435841
RightLeg 16.458516 -0.000000 -0.000000
RightFoot -10.228580 3.837273 19.534420
RightToeBase 13.072601 -0.000000 -0.000000
575
root 3.631291 35.949960 3.901482 -148.421882 -76.988483 175.618154
Spine -28.268094 -16.072415 -1.390351
Head 53.664749 -18.970496 -16.976738
LeftShoulder 14.993539 -5.922997 32.254518
LeftArm 103.376815 41.007415 -43.280582
LeftForeArm 14.243944 0.000000 94.710906
LeftHand -16.497783 -0.000000 -10.144074
LeftHandThumb1 -26.253704 0.000000 33.147579
RightShoulder -5.600841 -63.306378 -23.520223
RightArm 46.953786 24.081125 66.408397
RightForeArm 69.094021 -0.000000 75.753438
RightHand 13.991826 -0.000000 -11.526581
RightHandThumb1 -24.326973 -0.000000 -32.862282
LeftUpLeg -29.753215 13.026699 -4.273594
LeftLeg 18.378862 -0.000000 -0.000000
LeftFoot -17.957469 11.910209 -15.750320
LeftToeBase 9.010859 -0.000000 -0.000000
RightUpLeg -33.956400 -2.776696 -10.435314
RightLeg 16.448859 -0.000000 -0.000000
RightFoot -10.232778 3.815189 19.552667
RightToeBase 13.101476 -0.000000 -0.000000
576
root 3.631876 35.949255 3.900131 -148.486985 -76.978125 175.667555
Spine -28.218455 -16.076839 -1.439969
Head 53.687226 -18.987735 -17.003298
LeftShoulder 15.018581 -5.899178 32.244979
LeftArm 103.378233 41.004310 -43.258314
LeftForeArm 14.198775 -0.000000 94.733635
LeftHand -16.529964 -0.000000 -10.024648
LeftHandThumb1 -26.253704 0.000000 33.147579
RightShoulder -5.622978 -63.302891 -23.514403
RightArm 46.825986 24.211097 66.432229
RightForeArm 69.241688 -0.000000 74.408955
RightHand 14.265533 -0.000000 -12.307749
RightHandThumb1 -24.326973 -0.000000 -32.862282
LeftUpLeg -29.728844 13.044273 -4.262294
LeftLeg 18.367425 -0.000000 -0.000000
LeftFoot -17.967863 11.897074 -15.769151
LeftToeBase 9.034550 -0.000000 -0.000000
RightUpLeg -33.949605 -2.767414 -10.427883
RightLeg 16.460343 -0.000000 -0.000000
RightFoot -10.225334 3.828762 19.554605
RightToeBase 13.065295 -0.000000 -0.000000
